<svg focusable="false" height="35" role="presentation" viewBox="0 0 120 35" width="120" xmlns="http://www.w3.org/2000/svg"><g fill="none"><path fill="#0A0B09" stroke="#B0B2B7" d="M5 .5A4.5 4.5 0 0 0 .5 5v25A4.5 4.5 0 0 0 5 34.5h110a4.5 4.5 0 0 0 4.5-4.5V5A4.5 4.5 0 0 0 115 .5H5z"></path><g fill="#FFF"><path d="M24.356 16.793a4.817 4.817 0 0 1 2.317-4.048 4.993 4.993 0 0 0-3.924-2.104c-1.652-.172-3.252.98-4.094.98-.858 0-2.153-.963-3.548-.934a5.233 5.233 0 0 0-4.399 2.66c-1.901 3.264-.483 8.062 1.339 10.701.911 1.292 1.977 2.736 3.37 2.685 1.364-.057 1.874-.863 3.52-.863 1.631 0 2.11.863 3.531.83 1.464-.024 2.386-1.298 3.266-2.602a10.651 10.651 0 0 0 1.493-3.016 4.662 4.662 0 0 1-2.87-4.289zM21.67 8.906a4.724 4.724 0 0 0 1.096-3.404 4.889 4.889 0 0 0-3.154 1.618 4.496 4.496 0 0 0-1.125 3.278 4.044 4.044 0 0 0 3.183-1.492zM41.597 23.461h-4.654l-1.118 3.273h-1.972l4.41-12.108h2.047l4.41 12.108h-2.006l-1.117-3.273zm-4.172-1.51h3.69l-1.82-5.311h-.05l-1.82 5.311zM54.24 22.32c0 2.744-1.48 4.506-3.715 4.506a3.024 3.024 0 0 1-2.801-1.544h-.042v4.372h-1.828V17.906h1.769v1.469h.034a3.164 3.164 0 0 1 2.834-1.561c2.26 0 3.75 1.771 3.75 4.506zm-1.878 0c0-1.787-.931-2.962-2.353-2.962-1.396 0-2.335 1.2-2.335 2.962 0 1.78.94 2.97 2.335 2.97 1.422 0 2.353-1.166 2.353-2.97zM64.04 22.32c0 2.744-1.482 4.506-3.716 4.506a3.024 3.024 0 0 1-2.801-1.544h-.043v4.372h-1.827V17.906h1.769v1.469h.033a3.164 3.164 0 0 1 2.835-1.561c2.26 0 3.75 1.771 3.75 4.506zm-1.88 0c0-1.787-.93-2.962-2.352-2.962-1.396 0-2.335 1.2-2.335 2.962 0 1.78.939 2.97 2.335 2.97 1.421 0 2.353-1.166 2.353-2.97zM70.515 23.36c.136 1.2 1.312 1.99 2.92 1.99 1.54 0 2.648-.79 2.648-1.872 0-.94-.668-1.502-2.25-1.888l-1.583-.378c-2.243-.537-3.284-1.577-3.284-3.264 0-2.089 1.836-3.524 4.444-3.524 2.58 0 4.349 1.435 4.408 3.524h-1.844c-.11-1.208-1.118-1.937-2.59-1.937-1.472 0-2.48.737-2.48 1.811 0 .856.644 1.36 2.217 1.746l1.346.327c2.505.588 3.546 1.586 3.546 3.357 0 2.265-1.82 3.683-4.714 3.683-2.708 0-4.536-1.385-4.654-3.575h1.87zM81.957 15.817v2.09h1.693v1.434h-1.693v4.867c0 .756.34 1.108 1.083 1.108.201-.004.402-.018.601-.042V26.7a5.06 5.06 0 0 1-1.015.084c-1.802 0-2.505-.671-2.505-2.383v-5.06h-1.294v-1.435h1.294v-2.089h1.836zM84.63 22.32c0-2.777 1.65-4.522 4.223-4.522 2.581 0 4.223 1.745 4.223 4.522 0 2.786-1.633 4.523-4.223 4.523-2.589 0-4.222-1.737-4.222-4.523zm6.584 0c0-1.905-.88-3.03-2.361-3.03-1.48 0-2.36 1.134-2.36 3.03 0 1.913.88 3.03 2.36 3.03s2.361-1.117 2.361-3.03zM94.583 17.906h1.743v1.503h.042a2.12 2.12 0 0 1 2.142-1.595c.21 0 .42.022.626.068v1.694a2.575 2.575 0 0 0-.821-.11 1.85 1.85 0 0 0-1.424.582c-.366.39-.541.92-.48 1.45v5.236h-1.828v-8.828zM107.561 24.141c-.246 1.602-1.82 2.702-3.833 2.702-2.59 0-4.198-1.72-4.198-4.48 0-2.77 1.617-4.565 4.12-4.565 2.464 0 4.013 1.677 4.013 4.354v.62h-6.288v.11c-.059.657.17 1.308.628 1.786a2.329 2.329 0 0 0 1.767.715 2.016 2.016 0 0 0 2.056-1.242h1.735zm-6.177-2.635h4.45a2.113 2.113 0 0 0-.598-1.593 2.15 2.15 0 0 0-1.585-.647 2.264 2.264 0 0 0-1.604.652c-.426.42-.665.992-.663 1.588zM36.81 5.731a2.616 2.616 0 0 1 2.093.818 2.65 2.65 0 0 1 .698 2.147c0 1.906-1.024 3.002-2.791 3.002h-2.143V5.73h2.143zm-1.222 5.123h1.119a1.86 1.86 0 0 0 1.486-.605c.379-.416.552-.982.47-1.541a1.888 1.888 0 0 0-.478-1.53 1.864 1.864 0 0 0-1.478-.604h-1.119v4.28zM40.642 9.444a2.137 2.137 0 0 1 .992-2.015 2.11 2.11 0 0 1 2.237 0 2.137 2.137 0 0 1 .993 2.015 2.138 2.138 0 0 1-.992 2.02 2.11 2.11 0 0 1-2.239 0 2.138 2.138 0 0 1-.991-2.02zm3.313 0c0-.976-.436-1.547-1.2-1.547-.769 0-1.2.571-1.2 1.547 0 .984.431 1.55 1.2 1.55.764 0 1.2-.57 1.2-1.55zM50.476 11.698h-.916l-.926-3.317h-.07l-.92 3.317h-.909l-1.233-4.503h.896l.802 3.436h.066l.92-3.436h.847l.92 3.436h.07l.799-3.436h.883zM52.743 7.195h.85v.715h.067a1.34 1.34 0 0 1 1.335-.802c.442-.033.874.137 1.175.463.302.325.44.771.375 1.212v2.915h-.884V9.006c0-.724-.312-1.084-.966-1.084-.299-.014-.59.104-.795.324-.205.22-.305.518-.274.817v2.635h-.883V7.195zM57.953 5.437h.883v6.26h-.883zM60.064 9.444a2.137 2.137 0 0 1 .993-2.015 2.11 2.11 0 0 1 2.237 0 2.137 2.137 0 0 1 .993 2.015 2.138 2.138 0 0 1-.992 2.02 2.11 2.11 0 0 1-2.239 0 2.138 2.138 0 0 1-.992-2.02zm3.314 0c0-.976-.436-1.547-1.201-1.547-.768 0-1.2.571-1.2 1.547 0 .984.432 1.55 1.2 1.55.765 0 1.2-.57 1.2-1.55zM65.217 10.424c0-.81.6-1.278 1.665-1.344l1.212-.07V8.62c0-.475-.312-.744-.916-.744-.493 0-.835.182-.933.5h-.855c.09-.773.813-1.27 1.829-1.27 1.122 0 1.755.563 1.755 1.514v3.077h-.85v-.633h-.07a1.504 1.504 0 0 1-1.345.707c-.38.04-.759-.084-1.043-.34a1.364 1.364 0 0 1-.45-1.008zm2.877-.384v-.377l-1.093.07c-.616.042-.896.253-.896.65 0 .405.35.64.83.64.285.03.569-.059.787-.244.219-.186.353-.452.372-.74zM70.135 9.444c0-1.423.727-2.324 1.858-2.324a1.474 1.474 0 0 1 1.373.79h.066V5.437h.884v6.26h-.847v-.71h-.07a1.552 1.552 0 0 1-1.406.785c-1.138 0-1.858-.901-1.858-2.328zm.913 0c0 .955.447 1.53 1.196 1.53.744 0 1.205-.583 1.205-1.526 0-.938-.465-1.53-1.205-1.53-.744 0-1.196.58-1.196 1.526zM77.97 9.444a2.137 2.137 0 0 1 .994-2.015 2.11 2.11 0 0 1 2.236 0 2.137 2.137 0 0 1 .993 2.015 2.138 2.138 0 0 1-.992 2.02 2.11 2.11 0 0 1-2.239 0 2.138 2.138 0 0 1-.991-2.02zm3.314 0c0-.976-.436-1.547-1.2-1.547-.769 0-1.2.571-1.2 1.547 0 .984.431 1.55 1.2 1.55.764 0 1.2-.57 1.2-1.55zM83.378 7.195h.85v.715h.067a1.34 1.34 0 0 1 1.336-.802c.44-.033.873.137 1.175.463.301.325.439.771.374 1.212v2.915h-.883V9.006c0-.724-.313-1.084-.966-1.084-.3-.014-.59.104-.795.324-.206.22-.306.518-.274.817v2.635h-.884V7.195zM92.172 6.074v1.141h.97v.749h-.97v2.315c0 .472.193.679.633.679.113 0 .225-.008.337-.021v.74c-.159.029-.32.044-.48.046-.983 0-1.374-.348-1.374-1.216V7.964h-.71v-.749h.71V6.074h.884zM94.349 5.437h.876v2.481h.07c.24-.53.786-.853 1.364-.806a1.47 1.47 0 0 1 1.164.474c.298.325.437.767.378 1.205v2.907h-.884V9.01c0-.72-.333-1.084-.958-1.084a1.042 1.042 0 0 0-.827.307c-.217.22-.327.526-.3.835v2.63h-.883V5.437zM103.352 10.482a1.817 1.817 0 0 1-1.94 1.303 2.028 2.028 0 0 1-1.568-.68 2.053 2.053 0 0 1-.5-1.645 2.085 2.085 0 0 1 .5-1.65 2.06 2.06 0 0 1 1.565-.702c1.245 0 1.997.856 1.997 2.27v.31h-3.161v.05c-.028.334.085.664.312.91.227.246.547.384.88.38.432.052.853-.164 1.065-.546h.85zm-3.107-1.451h2.26a1.09 1.09 0 0 0-.293-.829 1.077 1.077 0 0 0-.808-.338 1.141 1.141 0 0 0-.824.338c-.218.22-.34.518-.335.829z"></path></g></g></svg>