<svg focusable="false" height="35" role="presentation" viewBox="0 0 120 35" width="120" xmlns="http://www.w3.org/2000/svg" xmlns:xlink="http://www.w3.org/1999/xlink"><defs><path id="a" d="M4.456 8.115L.789 4.503v-.256L4.458.637l4.428 2.475c1.241.695 1.241 1.83 0 2.525L4.54 8.067l-.084.048"></path><linearGradient id="b" x1="80.748%" x2="-157.307%" y1="49.998%" y2="49.998%"><stop offset="0%" stop-color="#EC942D"></stop><stop offset="100%" stop-color="#FBDE1E"></stop></linearGradient><path id="d" d="M15.207 3.692L11.456 0 .386 10.896c.41.426 1.086.479 1.847.054l12.974-7.257"></path><linearGradient id="e" x1="86.245%" x2="-50.14%" y1="17.846%" y2="194.81%"><stop offset="0%" stop-color="#DD4245"></stop><stop offset="100%" stop-color="#B72162"></stop></linearGradient><path id="g" d="M15.207 7.683L2.233.425C1.472 0 .796.053.387.48l11.069 10.896 3.751-3.692"></path><linearGradient id="h" x1="-50.749%" x2="60.607%" y1="-95.6%" y2="48.887%"><stop offset="0%" stop-color="#6CB966"></stop><stop offset="100%" stop-color="#299567"></stop></linearGradient></defs><g fill="none" fill-rule="evenodd"><path fill="#0A0B09" stroke="#B0B2B7" d="M5 .5A4.5 4.5 0 0 0 .5 5v25A4.5 4.5 0 0 0 5 34.5h110a4.5 4.5 0 0 0 4.5-4.5V5A4.5 4.5 0 0 0 115 .5H5z"></path><path fill="#FFFFFE" d="M42.15 8.963c0 .733-.221 1.317-.663 1.752-.501.518-1.155.777-1.959.777-.77 0-1.424-.262-1.963-.788-.538-.525-.808-1.177-.808-1.954 0-.778.27-1.429.808-1.954.539-.526 1.193-.788 1.963-.788.382 0 .748.073 1.095.22.347.146.626.341.834.586l-.469.462c-.353-.415-.839-.623-1.46-.623a2.04 2.04 0 0 0-1.456.583c-.41.389-.615.894-.615 1.514s.205 1.125.615 1.514c.41.39.894.582 1.456.582.596 0 1.092-.195 1.49-.585.258-.255.407-.609.447-1.064h-1.937v-.63h2.585c.025.137.037.269.037.396"></path><path fill="#FFFFFE" d="M42.15 8.963h-.089c0 .716-.213 1.273-.636 1.69l-.001.001c-.486.5-1.111.75-1.896.75-.75 0-1.376-.252-1.9-.762-.522-.51-.78-1.134-.782-1.892.001-.758.26-1.382.782-1.892.524-.51 1.15-.762 1.9-.763.37 0 .724.071 1.06.213.336.142.603.33.801.562l.068-.056-.063-.062-.469.462.063.062.068-.056c-.369-.436-.888-.656-1.528-.654a2.14 2.14 0 0 0-1.518.607c-.428.404-.643.937-.642 1.577 0 .64.214 1.172.642 1.577a2.14 2.14 0 0 0 1.518.608c.615 0 1.14-.205 1.553-.613.275-.272.432-.648.473-1.117l.008-.095h-1.945v-.456h2.496v-.087l-.088.015c.024.133.036.259.036.38h.178c0-.132-.013-.269-.039-.41l-.013-.072h-2.748v.805h2.026v-.088l-.089-.007c-.04.44-.181.772-.421 1.009-.383.374-.851.56-1.427.56-.54 0-1-.184-1.395-.557-.392-.374-.586-.85-.587-1.452 0-.602.195-1.078.587-1.452a1.952 1.952 0 0 1 1.395-.557c.602 0 1.055.197 1.392.591l.062.073.538-.53.058-.055-.053-.062a2.293 2.293 0 0 0-.867-.611 2.893 2.893 0 0 0-1.13-.227c-.79 0-1.472.272-2.025.814-.555.54-.835 1.219-.835 2.016 0 .797.28 1.476.835 2.017a2.8 2.8 0 0 0 2.025.813c.823 0 1.506-.269 2.024-.804l-.065-.06.063.061c.46-.453.69-1.065.69-1.814h-.09m4.097-2.193h-2.43v1.665h2.191v.63h-2.19v1.665h2.43v.645h-3.115v-5.25h3.114v.645"></path><path fill="#FFFFFE" d="M46.247 6.77v-.088H43.73v1.84h2.19v.455h-2.19v1.84h2.43v.47h-2.937V6.212h2.936v.558h.09v-.088.088h.088v-.733h-3.292v5.425h3.292v-.82h-2.43v-1.49h2.19v-.805h-2.19v-1.49h2.43V6.77h-.089m2.889 4.605h-.686V6.77h-1.49v-.645h3.666v.645h-1.49v4.605"></path><path fill="#FFFFFE" d="M49.137 11.375v-.088h-.597V6.682h-1.49v-.47h3.488v.47h-1.49v4.693h.089v-.088.088h.089V6.857h1.49v-.82h-3.844v.82h1.49v4.605h.864v-.087h-.09m4.142 0h.686v-5.25h-.686z"></path><path fill="#FFFFFE" d="M53.278 11.375h.09V6.212h.506v5.075h-.596v.088h.09-.09v.087h.774V6.037h-.863v5.425h.09v-.087m3.724 0h-.686V6.77h-1.49v-.645h3.665v.645h-1.49v4.605"></path><path fill="#FFFFFE" d="M57.003 11.375v-.088h-.597V6.682h-1.49v-.47h3.488v.47h-1.49v4.693h.089v-.088.088h.089V6.857h1.49v-.82h-3.843v.82h1.49v4.605h.863v-.087h-.09m5.024-1.118c.395.393.878.59 1.449.59a1.97 1.97 0 0 0 1.449-.59c.394-.394.592-.896.592-1.507 0-.61-.198-1.113-.592-1.507a1.97 1.97 0 0 0-1.45-.59c-.57 0-1.053.196-1.448.59-.394.394-.592.896-.592 1.507 0 .61.198 1.113.592 1.507zm3.404.44c-.523.53-1.176.795-1.955.795-.78 0-1.431-.265-1.955-.795s-.786-1.18-.786-1.947c0-.767.262-1.417.786-1.947s1.175-.795 1.955-.795c.775 0 1.425.266 1.952.799.526.532.789 1.18.789 1.943 0 .767-.262 1.417-.786 1.947z"></path><path fill="#FFFFFE" d="M62.026 10.257l-.063.061c.41.41.92.618 1.512.617.592 0 1.103-.208 1.512-.617.412-.409.62-.939.618-1.568.001-.63-.206-1.159-.618-1.568a2.062 2.062 0 0 0-1.512-.616c-.592 0-1.103.206-1.512.616-.411.41-.619.939-.618 1.568-.001.63.207 1.16.618 1.568l.127-.123c-.378-.377-.566-.853-.567-1.445 0-.592.189-1.068.567-1.446h-.001a1.884 1.884 0 0 1 1.386-.563 1.88 1.88 0 0 1 1.385.563c.378.378.567.854.568 1.446-.001.592-.19 1.067-.568 1.445a1.88 1.88 0 0 1-1.385.565 1.888 1.888 0 0 1-1.386-.565l-.063.062zm3.404.44l-.063-.061c-.51.514-1.133.768-1.892.769-.76-.001-1.383-.255-1.891-.77l-.003-.002.003.003c-.508-.516-.76-1.138-.76-1.886s.252-1.37.76-1.886c.508-.514 1.132-.768 1.89-.769.755.001 1.377.257 1.89.773.51.518.762 1.14.763 1.882 0 .748-.252 1.37-.76 1.886l.127.121c.54-.544.812-1.22.81-2.007a2.75 2.75 0 0 0-.813-2.004c-.542-.55-1.22-.827-2.016-.826-.8 0-1.48.276-2.019.823-.54.545-.812 1.22-.81 2.007-.002.787.27 1.463.81 2.007l.003.003-.003-.003c.539.548 1.219.824 2.019.823.8 0 1.48-.275 2.02-.823l-.065-.06zm1.748.678v-5.25h.834l2.592 4.084h.03l-.03-1.012V6.125h.686v5.25h-.716l-2.71-4.282h-.031l.03 1.012v3.27h-.685"></path><path fill="#FFFFFE" d="M67.178 11.375h.089V6.212h.696l2.592 4.085h.17l-.032-1.1V6.211h.508v5.075h-.577l-2.712-4.282h-.17l.032 1.101v3.181h-.596v.088h.089-.09v.087h.775V8.103l-.03-1.012-.09.002v.087h.031v-.087l-.075.046 2.737 4.323h.854V6.037h-.863V9.2l.029 1.012.089-.002v-.087h-.03v.087l.076-.046-2.619-4.126h-.972v5.425h.089v-.087M95.054 26.25h1.659V15.312h-1.659V26.25zm14.94-6.998l-1.902 4.742h-.056l-1.974-4.742h-1.786l2.959 6.628-1.687 3.687h1.73l4.56-10.315h-1.844zm-9.406 5.755c-.544 0-1.302-.266-1.302-.928 0-.844.944-1.168 1.758-1.168.73 0 1.072.155 1.516.366-.129 1.013-1.015 1.73-1.972 1.73zm.2-5.994c-1.201 0-2.445.52-2.96 1.675l1.472.604c.315-.604.9-.802 1.516-.802.858 0 1.73.506 1.744 1.408v.112c-.3-.17-.943-.422-1.73-.422-1.586 0-3.202.858-3.202 2.462 0 1.464 1.3 2.407 2.759 2.407 1.115 0 1.73-.492 2.116-1.07h.057v.845h1.6v-4.193c0-1.943-1.471-3.026-3.372-3.026zm-10.251 1.57h-2.36v-3.749h2.36a1.91 1.91 0 0 1 1.944 1.874 1.92 1.92 0 0 1-1.944 1.875zm-.043-5.271H86.52V26.25h1.658v-4.144h2.316c1.838 0 3.646-1.31 3.646-3.398 0-2.087-1.808-3.396-3.646-3.396zm-21.672 9.697c-1.146 0-2.105-.944-2.105-2.24 0-1.311.96-2.27 2.105-2.27 1.132 0 2.019.959 2.019 2.27 0 1.296-.887 2.24-2.019 2.24zm1.904-5.145h-.057c-.372-.436-1.088-.831-1.99-.831-1.89 0-3.623 1.634-3.623 3.735 0 2.086 1.732 3.708 3.623 3.708.902 0 1.618-.395 1.99-.846h.057v.535c0 1.425-.772 2.186-2.018 2.186-1.017 0-1.648-.72-1.905-1.326l-1.447.593c.416.987 1.519 2.198 3.352 2.198 1.947 0 3.594-1.127 3.594-3.876v-6.682h-1.576v.606zm2.722 6.386h1.661V15.31h-1.661v10.94zm4.11-3.609a2.056 2.056 0 0 1 1.975-2.17c.66 0 1.218.323 1.404.789l-3.38 1.381zm5.155-1.24c-.315-.832-1.275-2.368-3.237-2.368-1.947 0-3.565 1.508-3.565 3.721 0 2.086 1.604 3.722 3.751 3.722a3.773 3.773 0 0 0 3.151-1.65l-1.289-.846c-.429.62-1.016 1.03-1.862 1.03-.844 0-1.446-.381-1.833-1.128l5.055-2.058-.171-.423zm-40.274-1.226v1.578h3.837c-.114.888-.415 1.537-.872 1.988-.56.55-1.433 1.155-2.965 1.155a4.178 4.178 0 0 1-4.21-4.2c0-2.326 1.847-4.2 4.21-4.2 1.275 0 2.205.493 2.893 1.127l1.131-1.114c-.96-.902-2.234-1.593-4.024-1.593-3.236 0-5.957 2.594-5.957 5.78 0 3.186 2.72 5.78 5.957 5.78 1.747 0 3.064-.564 4.095-1.622 1.06-1.043 1.39-2.508 1.39-3.693a5 5 0 0 0-.087-.986H42.44zm9.848 4.834c-1.146 0-2.134-.93-2.134-2.255 0-1.34.988-2.255 2.134-2.255 1.145 0 2.133.916 2.133 2.255 0 1.325-.988 2.255-2.133 2.255zm0-5.976c-2.091 0-3.795 1.564-3.795 3.721 0 2.142 1.704 3.722 3.795 3.722 2.09 0 3.795-1.58 3.795-3.722 0-2.157-1.704-3.721-3.795-3.721zm8.278 5.976c-1.145 0-2.134-.93-2.134-2.255 0-1.34.989-2.255 2.134-2.255 1.146 0 2.134.916 2.134 2.255 0 1.325-.988 2.255-2.134 2.255zm0-5.976c-2.09 0-3.794 1.564-3.794 3.721 0 2.142 1.704 3.722 3.794 3.722 2.091 0 3.795-1.58 3.795-3.722 0-2.157-1.704-3.721-3.795-3.721z"></path><path fill="#60C2E3" d="M9.276 6.604c-.26.27-.411.686-.411 1.228v19.336c0 .541.152.959.41 1.228l.066.063 11.004-10.831v-.256L9.34 6.541l-.065.063"></path><g transform="translate(19.556 13.125)"><mask id="c" fill="#fff"><use xlink:href="#a"></use></mask><path fill="url(#b)" d="M4.456 8.115L.789 4.503v-.256L4.458.637l4.428 2.475c1.241.695 1.241 1.83 0 2.525L4.54 8.067l-.084.048" mask="url(#c)"></path></g><g transform="translate(8.889 17.5)"><mask id="f" fill="#fff"><use xlink:href="#d"></use></mask><path fill="url(#e)" d="M15.207 3.692L11.456 0 .386 10.896c.41.426 1.086.479 1.847.054l12.974-7.257" mask="url(#f)"></path></g><g transform="translate(8.889 6.125)"><mask id="i" fill="#fff"><use xlink:href="#g"></use></mask><path fill="url(#h)" d="M15.207 7.683L2.233.425C1.472 0 .796.053.387.48l11.069 10.896 3.751-3.692" mask="url(#i)"></path></g></g></svg>